<?xml version="1.0" encoding="utf-8"?>
<!-- Generator: Adobe Illustrator 23.0.5, SVG Export Plug-In . SVG Version: 6.00 Build 0)  -->
<svg version="1.1" id="Capa_1" xmlns="http://www.w3.org/2000/svg" xmlns:xlink="http://www.w3.org/1999/xlink" x="0px" y="0px"
	 viewBox="0 0 170 50" style="enable-background:new 0 0 170 50;" xml:space="preserve">
<style type="text/css">
	.st0{fill:#262626;}
</style>
<path class="st0" d="M11.85,1.91C8.48,3.32,4.79,7.3,3.62,12.29c-1.48,6.32,4.67,9,5.18,8.12c0.59-1.03-1.1-1.38-1.45-4.66
	c-0.45-4.24,1.52-8.97,4-11.05c0.46-0.39,0.44,0.15,0.44,1.14l-0.1,21.06c0,4.51-0.19,5.93-0.52,7.33
	c-0.34,1.42-0.88,2.39-0.47,2.76c0.46,0.41,2.43-0.57,3.57-2.16c1.37-1.91,1.84-4.2,1.93-6.68c0.1-3,0.1-7.75,0.1-10.47L16.25,3.52
	C16.23,2.45,13.25,1.32,11.85,1.91 M131.24,22.99c-0.11,2.34-0.63,4.17-1.27,5.46c-1.25,2.5-3.83,3.28-4.93-0.32
	c-0.6-1.96-0.63-5.23-0.2-7.96c0.44-2.78,1.66-4.89,3.68-4.7C130.53,15.67,131.46,18.24,131.24,22.99L131.24,22.99z M97.59,37.53
	c-0.03,3.89-0.64,7.3-1.95,8.3c-1.86,1.41-4.37,0.35-3.85-2.49c0.46-2.51,2.63-5.08,5.81-8.21L97.59,37.53L97.59,37.53z
	 M97.08,22.97c-0.11,2.13-0.67,4.28-1.27,5.49c-1.25,2.5-3.85,3.28-4.93-0.32c-0.74-2.46-0.56-5.64-0.2-7.65
	c0.47-2.6,1.62-5.02,3.68-5.02C96.38,15.48,97.36,17.68,97.08,22.97L97.08,22.97z M77.59,22.94c-0.12,2.26-0.56,4.15-1.27,5.52
	c-1.28,2.48-3.81,3.27-4.93-0.32c-0.8-2.59-0.53-6.11-0.2-8.02c0.5-2.83,1.74-4.83,3.68-4.64C76.87,15.68,77.84,18.24,77.59,22.94
	L77.59,22.94z M166.92,25.58c-0.49,0-0.71,0.5-0.89,1.35c-0.64,2.94-1.31,3.61-2.18,3.61c-0.97,0-1.84-1.46-2.06-4.37
	c-0.18-2.29-0.15-6.52,0.08-10.72c0.05-0.86-0.19-1.72-2.51-2.56c-1-0.36-2.44-0.89-3.16,0.85c-2.04,4.92-2.83,8.82-3.02,10.4
	c-0.01,0.08-0.11,0.1-0.13-0.09c-0.12-1.27-0.39-3.58-0.42-8.43c-0.01-0.95-0.21-1.75-1.25-2.41c-0.68-0.43-2.73-1.18-3.48-0.28
	c-0.64,0.74-1.38,2.72-2.16,5.07l-1.06,3.2l0.02-7.1c0-0.74-0.5-0.98-0.65-1.03c-0.69-0.2-2.04-0.53-2.61-0.53
	c-0.71,0-0.88,0.4-0.88,0.97l-0.11,11.47l0,0.66c-0.39,2.15-1.66,5.08-3.04,5.08c-1.38,0-2.03-1.22-2.03-6.81
	c0-3.26,0.1-4.68,0.15-7.04l0.08-2.64c-0.01-0.73-1.27-1.09-1.85-1.23c-0.59-0.14-1.1-0.19-1.49-0.17c-0.56,0.03-0.96,0.4-0.96,0.91
	l0,0.79c-0.73-1.14-1.89-1.93-2.67-2.16c-2.09-0.62-4.27-0.07-5.92,2.23c-1.31,1.83-2.1,3.9-2.41,6.88
	c-0.23,2.18-0.15,4.39,0.25,6.25c-0.49,2.11-1.39,2.97-2.38,2.97c-1.44,0-2.48-2.35-2.36-6.41c0.08-2.67,0.61-4.55,1.2-7.26
	c0.25-1.16,0.05-1.76-0.46-2.34c-0.47-0.53-1.46-0.8-2.88-0.47c-1.02,0.24-2.47,0.49-3.8,0.69c0,0,0.08-0.32,0.15-0.88
	c0.35-2.96-2.87-2.72-3.89-1.77c-0.61,0.56-1.03,1.23-1.19,2.43c-0.25,1.9,1.3,2.79,1.3,2.79c-0.51,2.32-1.75,5.36-3.04,7.56
	c-0.69,1.18-1.22,2.05-1.9,2.98l-0.01-1.03l0.08-10.12l0.08-2.61c-0.01-0.53-0.32-0.73-0.96-0.99c-0.57-0.22-1.24-0.38-1.94-0.43
	c-0.88-0.07-1.41,0.4-1.4,0.95c0,0.1,0,0.75,0,0.75c-0.73-1.14-1.89-1.93-2.67-2.16c-2.09-0.62-4.27-0.07-5.92,2.23
	c-1.31,1.83-2.17,4.4-2.41,6.86c-0.23,2.29-0.18,4.24,0.12,5.88c-0.33,1.64-1.29,3.36-2.37,3.36c-1.38,0-2.17-1.22-2.17-6.81
	c0-3.26,0.1-4.68,0.15-7.04l0.08-2.64c-0.01-0.73-1.27-1.09-1.85-1.23c-0.61-0.14-1.14-0.19-1.54-0.16
	c-0.53,0.04-0.91,0.52-0.91,0.88v0.82c-0.73-1.14-1.89-1.93-2.67-2.16c-2.09-0.62-4.26-0.06-5.92,2.23
	c-1.08,1.5-1.96,3.16-2.41,6.83c-0.13,1.06-0.19,2.06-0.18,2.98c-0.43,2.64-2.34,5.68-3.89,5.68c-0.91,0-1.78-1.77-1.78-5.54
	c0-5.02,0.31-12.17,0.36-12.86l2.35-0.04c0.98-0.01,1.87,0.01,3.18-0.05c0.66-0.03,1.29-2.39,0.61-2.68
	c-0.31-0.13-2.48-0.25-3.34-0.27c-0.72-0.02-2.74-0.17-2.74-0.17l0.22-5.25c0.04-0.42-0.5-0.63-0.82-0.76
	c-0.75-0.32-1.43-0.47-2.23-0.64c-1.1-0.23-1.61,0-1.7,0.93c-0.15,1.41-0.22,5.56-0.22,5.56c-0.81,0-3.58-0.16-4.39-0.16
	c-0.75,0-1.57,3.24-0.52,3.28l4.67,0.13l-0.06,10.2c-0.76,3.97-3.45,6.12-3.45,6.12c0.58-2.63-0.6-4.6-2.72-6.27
	c-0.78-0.62-2.32-1.78-4.05-3.06c0,0,1-0.98,1.89-2.97c0.63-1.4,0.66-3.01-0.89-3.36c-2.55-0.59-4.65,1.28-5.27,3.28
	c-0.49,1.55-0.23,2.69,0.72,3.89c0.07,0.09,0.14,0.18,0.22,0.27c-0.57,1.11-1.36,2.6-2.03,3.76c-1.86,3.21-3.26,5.75-4.32,5.75
	c-0.85,0-0.84-2.58-0.84-4.99c0-2.08,0.15-5.21,0.28-8.45c0.04-1.07-0.5-1.68-1.39-2.24c-0.55-0.34-1.71-1-2.39-1
	c-1.01,0-3.92,0.14-6.68,8.1c-0.35,1-1.03,2.83-1.03,2.83l0.06-9.58c0-0.22-0.12-0.44-0.39-0.59c-0.46-0.25-1.7-0.77-2.8-0.77
	c-0.52,0-0.79,0.24-0.79,0.73l-0.1,14.98c0,1.14,0.03,2.47,0.14,3.05c0.11,0.58,0.29,1.05,0.52,1.34c0.22,0.28,0.48,0.5,0.91,0.58
	c0.4,0.08,2.58,0.36,2.7-0.47c0.14-1,0.14-2.08,1.29-6.12c1.79-6.28,4.11-9.35,5.21-10.43c0.19-0.19,0.41-0.2,0.4,0.11l-0.32,7.74
	c-0.3,7.82,1.13,9.27,3.16,9.27c1.56,0,3.75-1.55,6.1-5.46l3.91-6.55l2.31,2.13c1.86,1.76,2.47,3.44,2.06,5.03
	c-0.31,1.21-1.47,2.47-3.55,1.25c-0.6-0.35-0.86-0.63-1.47-1.03c-0.33-0.21-0.83-0.28-1.12-0.05c-0.78,0.59-1.22,1.33-1.47,2.25
	c-0.25,0.9,0.65,1.37,1.58,1.78c0.8,0.36,2.53,0.68,3.62,0.72c4.28,0.15,7.71-2.07,10.1-7.77c0.43,4.93,2.25,7.71,5.41,7.71
	c2.11,0,4.23-2.73,5.16-5.42c0.27,1.1,0.66,2.05,1.17,2.85c2.44,3.86,7.16,3.03,9.53-0.25c0.73-1.01,0.85-1.38,0.85-1.38
	c0.35,3.09,2.84,4.18,4.26,4.18c1.6,0,3.25-0.76,4.4-3.36c0.14,0.28,0.28,0.55,0.44,0.81c2.44,3.86,7.16,3.03,9.53-0.25
	c0.1-0.14,0.2-0.28,0.29-0.42l0.07,2.03l-2.19,2c-3.66,3.36-6.44,5.9-6.64,8.87c-0.26,3.78,2.8,5.19,5.12,5.37
	c2.46,0.2,4.57-1.17,5.87-3.07c1.14-1.68,1.89-5.28,1.83-8.85l-0.09-5.19c1.29-1.49,2.73-3.38,4.07-5.59
	c1.45-2.41,3.01-5.64,3.81-8.16c0,0,1.35,0.01,2.8-0.08c0.46-0.03,0.59,0.06,0.51,0.4c-0.1,0.41-1.82,7.05-0.25,11.47
	c1.08,3.03,3.5,4,4.94,4c1.68,0,3.29-1.27,4.16-3.16c0.1,0.21,0.21,0.41,0.33,0.6c2.44,3.86,7.14,3.02,9.53-0.25
	c0.54-0.74,0.85-1.38,0.85-1.38c0.51,3.2,3,4.19,4.43,4.19c1.49,0,2.9-0.61,4.04-3.32c0.05,1.19,0.12,2.17,0.24,2.47
	c0.07,0.19,0.49,0.42,0.8,0.54c1.36,0.5,2.75,0.27,3.26,0.16c0.36-0.07,0.63-0.36,0.67-1.09c0.1-1.93,0.04-5.18,0.62-7.59
	c0.98-4.05,1.9-5.62,2.34-6.4c0.24-0.44,0.52-0.51,0.53-0.05c0.02,0.93,0.07,3.67,0.45,7.36c0.28,2.71,0.65,4.31,0.94,4.82
	c0.82,1.45,1.83,1.52,2.65,1.52c0.52,0,1.62-0.15,1.52-1.07c-0.05-0.45,0.04-3.23,1.01-7.22c0.63-2.61,1.69-4.96,2.07-5.82
	c0.14-0.32,0.21-0.07,0.2-0.02c-0.08,1.79-0.26,7.66,0.47,10.87c0.99,4.35,3.86,4.84,4.86,4.84c2.13,0,3.88-1.62,4.46-5.89
	C167.76,26.37,167.55,25.58,166.92,25.58"/>
</svg>
